<svg xmlns="http://www.w3.org/2000/svg" viewBox="0 0 512 512" width="512" height="512">
  <defs>
    <filter id="drop" x="-15%" y="-15%" width="130%" height="130%">
      <feDropShadow dx="0" dy="7" stdDeviation="9"
                    flood-color="#402310" flood-opacity="0.28"/>
    </filter>
  </defs>
  
  <rect x="26" y="26" width="460" height="460" rx="112"
        fill="#f5ead8"/>
  <rect x="28" y="28" width="456" height="456"
        rx="110" fill="none" stroke="#2e2b25" stroke-opacity="0.12"
        stroke-width="3"/>
  
  <g>
    
    <polygon points="256,57.01 465.23,209.02 385.31,454.99 126.69,454.99 46.77,209.02" fill="#c67139" filter="url(#drop)"/>
    <polygon points="256,57.01 465.23,209.02 435.73,215.62 256,85.04"
             fill="#d89b70"/>
    <polygon points="465.23,209.02 385.31,454.99 367.08,426.9 435.73,215.62"
             fill="#814721"/>
    <polygon points="385.31,454.99 126.69,454.99 144.92,426.9 367.08,426.9"
             fill="#864a23"/>
    <polygon points="126.69,454.99 46.77,209.02 76.27,215.62 144.92,426.9"
             fill="#dca57d"/>
    <polygon points="46.77,209.02 256,57.01 256,85.04 76.27,215.62"
             fill="#f2d9c1"/>
    <polygon points="256,85.04 435.73,215.62 367.08,426.9 144.92,426.9 76.27,215.62" fill="#cc7e4b"/>
  </g>
  
  <g>
    <path d="M296.8 289L352.56 289 M284.85 317.85L324.28 357.28 M256 329.8L256 385.56 M227.15 317.85L187.72 357.28 M215.2 289L159.44 289 M227.15 260.15L187.72 220.72 M256 248.2L256 192.44 M284.85 260.15L324.28 220.72" fill="none" stroke="#1f232b"
          stroke-width="13.6" stroke-linecap="butt"/>
    <circle cx="256" cy="289" r="68" fill="#1f232b"/>
    <rect x="220.64" y="253.64"
          width="20.4" height="20.4" fill="#f4f1e8"/>
  </g>
</svg>
